<svg xmlns="http://www.w3.org/2000/svg" xmlns:xlink="http://www.w3.org/1999/xlink" width="16" height="16" version="1.1" viewBox="0 0 16 16"><title>esc_exit</title><defs><linearGradient id="linearGradient-1" x1="32%" x2="68%" y1="0%" y2="100%"><stop offset="0%" stop-color="#D4FF2A"/><stop offset="100%" stop-color="#81D135"/></linearGradient><linearGradient id="linearGradient-2" x1="36.731%" x2="63.269%" y1="0%" y2="100%"><stop offset="0%" stop-color="#D4FF2A"/><stop offset="100%" stop-color="#81D135"/></linearGradient></defs><g id="esc_exit" fill="none" fill-rule="evenodd" stroke="none" stroke-width="1"><g id="Group" fill-rule="nonzero" transform="translate(4.000000, 2.000000)"><polygon id="Rectangle-Copy" fill="url(#linearGradient-1)" points="6 10 0 10 0 0 6 0"/><path id="Rectangle" fill="#1B2F0D" d="M7,0 L7,10 L0,10 L0,0 L7,0 Z M6,1 L1,1 L1,9 L6,9 L6,1 Z"/></g><g id="Group-Copy" fill-rule="nonzero" transform="translate(4.000000, 2.000000)"><polygon id="Rectangle-Copy" fill="url(#linearGradient-2)" points="6 11.647 0 10 0 0 6 1.647"/><path id="Rectangle" fill="#1B2F0D" d="M7,1.92135862 L7,11.9213586 L0,10 L0,0 L7,1.92135862 Z M6,2.64687882 L1,1.2744798 L1,9.2744798 L6,10.6468788 L6,2.64687882 Z"/></g></g></svg>